<svg width="1600" height="120" viewBox="0 0 1600 120" fill="none" xmlns="http://www.w3.org/2000/svg">
<g clip-path="url(#clip0_4565:17400)">
<rect width="1600" height="120" fill="#040531"/>
<g opacity="0.8">
<path opacity="0.89" d="M542 201C701.877 191.428 1435.32 2.77407 1699.5 -74.5" stroke="url(#paint0_linear_4565:17400)" stroke-width="43"/>
<path opacity="0.65" d="M388 172C574.619 158.66 1092.64 34.6908 1401 -73" stroke="url(#paint1_linear_4565:17400)" stroke-width="56"/>
<path opacity="0.76" d="M251 172C449.139 156.334 1026.6 -2.53191 1354 -129" stroke="url(#paint2_linear_4565:17400)" stroke-width="20"/>
<path opacity="0.5" d="M236 214C434.257 198.38 995.697 59.7773 1381 -48" stroke="url(#paint3_linear_4565:17400)" stroke-width="20"/>
<path opacity="0.75" d="M356 222C508.434 203.058 1204.05 59.8297 1402 15" stroke="url(#paint4_linear_4565:17400)"/>
</g>
</g>
<defs>
<linearGradient id="paint0_linear_4565:17400" x1="1587.28" y1="77.5258" x2="328.587" y2="538.614" gradientUnits="userSpaceOnUse">
<stop stop-color="#8ED0FF"/>
<stop offset="1" stop-color="#0085E5"/>
</linearGradient>
<linearGradient id="paint1_linear_4565:17400" x1="1608.12" y1="-0.0754734" x2="271.936" y2="449.12" gradientUnits="userSpaceOnUse">
<stop stop-color="#149CFF"/>
<stop offset="1" stop-color="#008BEF"/>
</linearGradient>
<linearGradient id="paint2_linear_4565:17400" x1="1514.22" y1="-64.3119" x2="-128.62" y2="391.406" gradientUnits="userSpaceOnUse">
<stop stop-color="#5EAAE0"/>
<stop offset="1" stop-color="#0094FF"/>
</linearGradient>
<linearGradient id="paint3_linear_4565:17400" x1="1514.9" y1="-15.063" x2="-128.077" y2="442.318" gradientUnits="userSpaceOnUse">
<stop stop-color="#5EAAE0"/>
<stop offset="1" stop-color="#0094FF"/>
</linearGradient>
<linearGradient id="paint4_linear_4565:17400" x1="1536.84" y1="-19.8292" x2="216.819" y2="213.154" gradientUnits="userSpaceOnUse">
<stop stop-color="#A1D8FF"/>
<stop offset="1" stop-color="#00A0E5"/>
</linearGradient>
<clipPath id="clip0_4565:17400">
<rect width="1600" height="120" fill="white"/>
</clipPath>
</defs>
</svg>
